<svg width="131" height="131" viewBox="0 0 131 131" fill="none" xmlns="http://www.w3.org/2000/svg">
<g clip-path="url(#clip0_1_14)">
<path d="M65.5 131C101.675 131 131 101.675 131 65.5C131 29.3253 101.675 0 65.5 0C29.3253 0 0 29.3253 0 65.5C0 101.675 29.3253 131 65.5 131Z" fill="#2DB1CF"/>
<g clip-path="url(#clip1_1_14)">
<path d="M66.179 96.574C37.648 96.574 20.193 67.321 19.461 66.074L19.001 65.286L19.458 64.498C20.179 63.256 37.447 34 66.179 34C94.911 34 112.179 63.26 112.9 64.5L113.357 65.288L112.897 66.076C112.163 67.321 94.708 96.574 66.179 96.574ZM22.651 65.28C25.636 69.921 41.971 93.445 66.179 93.445C90.42 93.445 106.724 69.923 109.705 65.284C106.744 60.641 90.553 37.129 66.179 37.129C41.805 37.129 25.611 60.638 22.651 65.28Z" fill="white"/>
<g clip-path="url(#clip2_1_14)">
<path d="M66 79C63.5584 78.9992 61.1593 78.3599 59.0411 77.1456C56.9229 75.9313 55.1591 74.1842 53.9249 72.0777C52.6906 69.9711 52.0288 67.5785 52.0051 65.1372C51.9815 62.6959 52.5968 60.2909 53.7899 58.1608C53.8884 57.98 54.0218 57.8206 54.1823 57.6918C54.3429 57.563 54.5274 57.4673 54.7252 57.4103C54.923 57.3534 55.1302 57.3362 55.3347 57.3599C55.5392 57.3836 55.7369 57.4476 55.9165 57.5483C56.096 57.649 56.2538 57.7843 56.3806 57.9465C56.5075 58.1086 56.6008 58.2943 56.6554 58.4927C56.7099 58.6912 56.7245 58.8986 56.6982 59.1027C56.672 59.3069 56.6055 59.5038 56.5026 59.6821C55.2206 61.9764 54.8131 64.6574 55.3555 67.229C55.898 69.8006 57.3536 72.0887 59.4532 73.6699C61.5528 75.2511 64.1541 76.0183 66.7757 75.8296C69.3974 75.641 71.862 74.5091 73.7134 72.6436C75.5649 70.778 76.6778 68.305 76.8463 65.6823C77.0149 63.0595 76.2275 60.4645 74.6301 58.3774C73.0326 56.2903 70.7331 54.8524 68.1571 54.3298C65.5811 53.8073 62.903 54.2353 60.6184 55.5349C60.2597 55.7349 59.8366 55.7851 59.4411 55.6746C59.0455 55.5642 58.7097 55.302 58.5066 54.9451C58.3035 54.5882 58.2496 54.1656 58.3566 53.7692C58.4636 53.3727 58.7229 53.0346 59.0781 52.8285C60.9418 51.7683 63.0241 51.1503 65.1645 51.0221C67.3049 50.8938 69.4461 51.2588 71.4231 52.0888C73.4001 52.9188 75.1601 54.1916 76.5674 55.8093C77.9746 57.4269 78.9915 59.3461 79.5397 61.4188C80.0879 63.4915 80.1528 65.6624 79.7292 67.7642C79.3057 69.8659 78.4051 71.8423 77.0969 73.541C75.7887 75.2397 74.1078 76.6153 72.1838 77.5618C70.2599 78.5083 68.1442 79.0003 66 79Z" fill="white"/>
</g>
<g clip-path="url(#clip3_1_14)">
<path d="M66.03 90.059C59.3942 90.0513 53.0323 87.4119 48.3399 82.7198C43.6476 78.0276 41.0079 71.6658 41 65.03C40.9848 59.6433 42.7233 54.3981 45.953 50.087C46.2007 49.7543 46.5704 49.5336 46.9809 49.4735C47.3913 49.4134 47.8088 49.5188 48.1415 49.7665C48.4742 50.0142 48.6949 50.3839 48.755 50.7944C48.8151 51.2048 48.7097 51.6223 48.462 51.955C45.1668 56.3911 43.6737 61.9106 44.2831 67.403C44.8925 72.8954 47.5592 77.9532 51.7468 81.5591C55.9343 85.165 61.332 87.0514 66.854 86.8387C72.376 86.6261 77.6127 84.3302 81.5105 80.413C85.4084 76.4958 87.6782 71.2479 87.8635 65.7248C88.0487 60.2018 86.1356 54.8136 82.509 50.644C78.8824 46.4744 73.8114 43.8328 68.3161 43.2506C62.8207 42.6684 57.3088 44.1888 52.889 47.506C52.7248 47.6292 52.538 47.7189 52.3392 47.77C52.1404 47.821 51.9335 47.8324 51.7302 47.8035C51.527 47.7746 51.3315 47.7059 51.1548 47.6014C50.9781 47.4969 50.8237 47.3586 50.7005 47.1945C50.5773 47.0303 50.4875 46.8435 50.4365 46.6447C50.3855 46.4459 50.3741 46.239 50.403 46.0357C50.4319 45.8325 50.5006 45.637 50.6051 45.4603C50.7096 45.2836 50.8478 45.1292 51.012 45.006C55.3367 41.7415 60.6115 39.9832 66.03 40C72.6408 40.0418 78.9667 42.6972 83.6265 47.3866C88.2864 52.076 90.9018 58.4185 90.9018 65.0295C90.9018 71.6405 88.2864 77.9829 83.6265 82.6724C78.9667 87.3618 72.6408 90.0172 66.03 90.059V90.059Z" fill="white"/>
</g>
</g>
</g>
<defs>
<clipPath id="clip0_1_14">
<rect width="131" height="131" fill="white"/>
</clipPath>
<clipPath id="clip1_1_14">
<rect width="94.355" height="62.574" fill="white" transform="translate(19 34)"/>
</clipPath>
<clipPath id="clip2_1_14">
<rect width="28" height="28" fill="white" transform="translate(52 51)"/>
</clipPath>
<clipPath id="clip3_1_14">
<rect width="50.059" height="50.059" fill="white" transform="translate(41 40)"/>
</clipPath>
</defs>
</svg>
