<svg id="Group_1573" data-name="Group 1573" xmlns="http://www.w3.org/2000/svg" xmlns:xlink="http://www.w3.org/1999/xlink" width="146.871" height="70.024" viewBox="0 0 146.871 70.024">
  <defs>
    <clipPath id="clip-path">
      <rect id="Rectangle_130" data-name="Rectangle 130" width="146.871" height="70.024" fill="none"/>
    </clipPath>
    <clipPath id="clip-path-3">
      <rect id="Rectangle_128" data-name="Rectangle 128" width="32.336" height="31.278" fill="none"/>
    </clipPath>
    <clipPath id="clip-path-4">
      <rect id="Rectangle_126" data-name="Rectangle 126" width="21.244" height="21.243" fill="none"/>
    </clipPath>
    <clipPath id="clip-path-5">
      <rect id="Rectangle_127" data-name="Rectangle 127" width="22.168" height="22.167" fill="none"/>
    </clipPath>
  </defs>
  <g id="Group_1301" data-name="Group 1301" clip-path="url(#clip-path)">
    <g id="Group_1300" data-name="Group 1300">
      <g id="Group_1299" data-name="Group 1299" clip-path="url(#clip-path)">
        <text id="coupler" transform="translate(0 58.155)" fill="#191c36" font-size="43" font-family="Fonarto"><tspan x="0" y="0" letter-spacing="-0.049em">cou</tspan><tspan y="0" letter-spacing="-0.05em">p</tspan><tspan y="0" letter-spacing="-0.049em">le</tspan><tspan y="0">r</tspan></text>
        <g id="Group_1298" data-name="Group 1298" transform="translate(39.602)">
          <g id="Group_1297" data-name="Group 1297">
            <g id="Group_1296" data-name="Group 1296" clip-path="url(#clip-path-3)">
              <g id="Group_1292" data-name="Group 1292" transform="translate(10.63 0.462)">
                <g id="Group_1291" data-name="Group 1291">
                  <g id="Group_1290" data-name="Group 1290" clip-path="url(#clip-path-4)">
                    <path id="Path_1820" data-name="Path 1820" d="M163.071,11.375a8.23,8.23,0,0,0-6-2.19h0a8.227,8.227,0,0,0-2.19-6c-3.795-3.795-11.19-1.795-11.19,6v5.452h0a8.23,8.23,0,0,1,5.791-2.693c4.877,0,8.472,5.485,4.953,10.622h2.637c7.795,0,9.794-7.395,6-11.19" transform="translate(-143.691 -1.321)" fill="#e6a2b5"/>
                  </g>
                </g>
              </g>
              <g id="Group_1295" data-name="Group 1295" transform="translate(10.168)" opacity="0">
                <g id="Group_1294" data-name="Group 1294">
                  <g id="Group_1293" data-name="Group 1293" clip-path="url(#clip-path-5)">
                    <path id="Path_1821" data-name="Path 1821" d="M163.071,11.375a8.23,8.23,0,0,0-6-2.19h0a8.227,8.227,0,0,0-2.19-6c-3.795-3.795-11.19-1.795-11.19,6v5.452h0a8.23,8.23,0,0,1,5.791-2.693c4.877,0,8.472,5.485,4.953,10.622h2.637C164.866,22.565,166.866,15.17,163.071,11.375Z" transform="translate(-143.229 -0.86)" fill="none" stroke="#fff" stroke-width="2.642"/>
                  </g>
                </g>
              </g>
              <path id="Path_1822" data-name="Path 1822" d="M124.356,42.824h0V35.6h0a7.494,7.494,0,0,0-5.275-2.453c-4.888,0-8.363,6.052-3.343,11.071l8.618,8.618h0l8.618-8.618a9.859,9.859,0,0,0,1.168-1.4h-9.786Z" transform="translate(-113.284 -21.561)" fill="#2db1cf"/>
              <path id="Path_1823" data-name="Path 1823" d="M150.23,33.149a7.5,7.5,0,0,0-5.275,2.453h0v7.222h9.786c3.206-4.679-.069-9.676-4.511-9.675" transform="translate(-133.884 -21.561)" fill="#1f88a0"/>
            </g>
          </g>
        </g>
      </g>
    </g>
  </g>
</svg>
