<svg xmlns="http://www.w3.org/2000/svg" xmlns:xlink="http://www.w3.org/1999/xlink" width="141" height="141" viewBox="0 0 141 141">
  <defs>
    <filter id="Rectangle_76" x="0" y="0" width="141" height="141" filterUnits="userSpaceOnUse">
      <feOffset dy="3" input="SourceAlpha"/>
      <feGaussianBlur stdDeviation="3" result="blur"/>
      <feFlood flood-opacity="0.161"/>
      <feComposite operator="in" in2="blur"/>
      <feComposite in="SourceGraphic"/>
    </filter>
  </defs>
  <g id="Group_1616" data-name="Group 1616" transform="translate(-1207 -1171)">
    <g transform="matrix(1, 0, 0, 1, 1207, 1171)" filter="url(#Rectangle_76)">
      <rect id="Rectangle_76-2" data-name="Rectangle 76" width="123" height="123" rx="11" transform="translate(9 6)" fill="#fff"/>
    </g>
    <text id="Saame_tuttavaks" data-name="Saame tuttavaks" transform="translate(1278 1278)" fill="#9b9ca4" font-size="13" font-family="Averta-Semibold, Averta" font-weight="600"><tspan x="-51" y="0">Saame tuttavaks</tspan></text>
    <path id="_2316250_danger_fire_flame_motivation_passion_icon" data-name="2316250_danger_fire_flame_motivation_passion_icon" d="M48.327,22.194l-.136-.061A15.36,15.36,0,0,1,39.259,5,23.023,23.023,0,0,0,24.008,24.7q-.061.743-.082,1.493v.5a22.9,22.9,0,0,0,3.859,12.756,7.656,7.656,0,0,1-8.652-7.261A23.016,23.016,0,0,0,37.855,66.317,10.554,10.554,0,0,1,31.589,56.9v-.225a10.54,10.54,0,0,1,6.388-9.695h.055a8.624,8.624,0,0,0,5.209-7.915A10.56,10.56,0,0,1,48.8,47.433a4.478,4.478,0,0,0,.034.682v.225a10.492,10.492,0,0,1-1.766,5.849L46.22,55.45l1.534.2a4.853,4.853,0,0,0,.614.041A4.772,4.772,0,0,0,52.26,53.7a10.533,10.533,0,0,1-2.277,9.988A23.009,23.009,0,0,0,62.262,43.86v-.5A23.016,23.016,0,0,0,48.326,22.194ZM60.346,43.806a21.094,21.094,0,0,1-5.809,14.078,11.919,11.919,0,0,0,.061-1.214,12.483,12.483,0,0,0-.5-3.484L53,49.4l-2.3,3.2a2.863,2.863,0,0,1-1.05.893,12.422,12.422,0,0,0,1.111-5.147V48.08a5.437,5.437,0,0,0-.041-.811,12.415,12.415,0,0,0-6.559-9.926l-2.816-1.5v3.191a6.722,6.722,0,0,1-4.091,6.136l-.048.055a12.456,12.456,0,0,0-7.547,11.454v.266A12.394,12.394,0,0,0,31.323,62.9a21.135,21.135,0,0,1-12.313-25.45A9.545,9.545,0,0,0,26.8,41.433a9.7,9.7,0,0,0,1.227-.082l3.068-.4-1.718-2.55a20.991,20.991,0,0,1-3.538-11.692c0-.15,0-.307,0-.457,0-.45.034-.914.075-1.364a21.135,21.135,0,0,1,11.1-16.819A17.255,17.255,0,0,0,47.44,23.9h.041l.1.041a21.08,21.08,0,0,1,12.769,19.41C60.353,43.5,60.346,43.656,60.346,43.806Z" transform="translate(1237.738 1195.124)" fill="#2ebad9"/>
  </g>
</svg>
