<svg xmlns="http://www.w3.org/2000/svg" xmlns:xlink="http://www.w3.org/1999/xlink" width="141" height="141" viewBox="0 0 141 141">
  <defs>
    <filter id="Rectangle_77" x="0" y="0" width="141" height="141" filterUnits="userSpaceOnUse">
      <feOffset dy="3" input="SourceAlpha"/>
      <feGaussianBlur stdDeviation="3" result="blur"/>
      <feFlood flood-opacity="0.161"/>
      <feComposite operator="in" in2="blur"/>
      <feComposite in="SourceGraphic"/>
    </filter>
  </defs>
  <g id="Group_1617" data-name="Group 1617" transform="translate(-1422 -1205)">
    <g transform="matrix(1, 0, 0, 1, 1422, 1205)" filter="url(#Rectangle_77)">
      <rect id="Rectangle_77-2" data-name="Rectangle 77" width="123" height="123" rx="11" transform="translate(9 6)" fill="#fff"/>
    </g>
    <text id="Hetke_hinnang" data-name="Hetke hinnang" transform="translate(1493 1313)" fill="#9b9ca4" font-size="13" font-family="Averta-Semibold, Averta" font-weight="600"><tspan x="-44" y="0">Hetke hinnang</tspan></text>
    <g id="Group_1267" data-name="Group 1267" transform="translate(1447.325 1231.627)">
      <g id="outline" transform="translate(0)">
        <path id="Path_1708" data-name="Path 1708" d="M182.718,266.3a40.558,40.558,0,0,1,5.59,20.648.844.844,0,0,1-.845.845h0a.844.844,0,0,1-.845-.845,38.814,38.814,0,0,0-5.353-19.791,46.853,46.853,0,0,0-2.739-4.08.845.845,0,0,1,1.352-1.014C180.892,263.429,181.839,264.849,182.718,266.3Zm-54.11-19.915a40.117,40.117,0,0,0-26.046,24.491,41.743,41.743,0,0,0-2.7,16.173.852.852,0,0,1-.823.868h-.023a.847.847,0,0,1-.845-.823,43.374,43.374,0,0,1,2.818-16.827,41.815,41.815,0,0,1,27.128-25.505,48.691,48.691,0,0,1,41.712,6.774.843.843,0,1,1-.958,1.386A47.014,47.014,0,0,0,128.608,246.388Zm53.174,5.444a.841.841,0,0,0-1.116-1.217c-5.782,3.528-12.1,7.4-18.461,11.293-5.624,3.449-11.271,6.909-16.579,10.166-.428-.079-.845-.147-1.285-.192a14.579,14.579,0,0,0-6.988,1.014,15.312,15.312,0,0,0,.124,28.447,14.8,14.8,0,0,0,5.444,1.014,15.592,15.592,0,0,0,11.316-4.79,14.4,14.4,0,0,0,3.911-10.459,16.994,16.994,0,0,0-.293-2.277c3.516-4.8,7.168-9.884,10.707-14.8C172.958,263.936,177.489,257.636,181.783,251.832ZM153.02,296.407a13.587,13.587,0,1,1-15.035-21.932,12.72,12.72,0,0,1,7.506-.7,1.176,1.176,0,0,0,.192.045,13.193,13.193,0,0,1,4,1.691,14.733,14.733,0,0,1,6.447,9.3.041.041,0,0,0,.011.034,14.814,14.814,0,0,1,.327,2.356A12.672,12.672,0,0,1,153.02,296.407Zm4.283-13.682a16.376,16.376,0,0,0-6.717-8.644,14.929,14.929,0,0,0-2.75-1.375c4.925-3.009,10.1-6.187,15.26-9.354,5.027-3.077,10.042-6.154,14.776-9.05-3.516,4.8-7.145,9.839-10.662,14.742C163.93,273.573,160.572,278.25,157.3,282.724Zm-14.742-35.457.056,6.233a.859.859,0,0,1-.834.857h-.011a.842.842,0,0,1-.845-.834l-.056-6.233a.859.859,0,0,1,.834-.857h.011A.842.842,0,0,1,142.561,247.267ZM119.22,263.519a.84.84,0,0,1-.6,1.443.873.873,0,0,1-.6-.237l-4.452-4.362a.845.845,0,0,1,1.183-1.206Zm-8.611,24.468a.859.859,0,0,1-.834.857l-6.233.056h-.011a.842.842,0,0,1-.845-.834.859.859,0,0,1,.834-.857l6.233-.056h.011A.842.842,0,0,1,110.609,287.988Zm72.943,0a.859.859,0,0,1-.834.857l-6.233.056h-.011a.842.842,0,0,1-.845-.834.859.859,0,0,1,.834-.857l6.233-.056h.011A.849.849,0,0,1,183.552,287.988Z" transform="translate(-98.15 -242.728)" fill="#2ebad9"/>
      </g>
      <path id="Path_1709" data-name="Path 1709" d="M73.826,72.551a3.493,3.493,0,0,0-2.484,1.033l-.307.3-.3-.3a3.516,3.516,0,1,0-4.976,4.969l4.836,4.84a.626.626,0,0,0,.885,0l4.839-4.839a3.519,3.519,0,0,0-2.49-6Zm1.6,5.118-4.4,4.4L67.389,78.42l-.747-.752a2.264,2.264,0,1,1,3.205-3.2l.745.745a.626.626,0,0,0,.884,0l.749-.745h0a2.264,2.264,0,0,1,3.2,3.2Z" transform="translate(-25.999 -32.707)" fill="#2ebad9"/>
    </g>
  </g>
</svg>
