<svg xmlns="http://www.w3.org/2000/svg" xmlns:xlink="http://www.w3.org/1999/xlink" width="143" height="143" viewBox="0 0 143 143">
  <defs>
    <filter id="Rectangle_75" x="0" y="0" width="143" height="143" filterUnits="userSpaceOnUse">
      <feOffset dy="3" input="SourceAlpha"/>
      <feGaussianBlur stdDeviation="3" result="blur"/>
      <feFlood flood-opacity="0.161"/>
      <feComposite operator="in" in2="blur"/>
      <feComposite in="SourceGraphic"/>
    </filter>
  </defs>
  <g id="Group_1401" data-name="Group 1401" transform="translate(9 6)">
    <g transform="matrix(1, 0, 0, 1, -9, -6)" filter="url(#Rectangle_75)">
      <rect id="Rectangle_75-2" data-name="Rectangle 75" width="125" height="125" rx="11" transform="translate(9 6)" fill="#fff"/>
    </g>
    <text id="Meeldetuletaja" transform="translate(63 103)" fill="#9b9ca4" font-size="11" font-family="Averta-Semibold, Averta" font-weight="600"><tspan x="-38" y="0">Meeldetuletaja</tspan></text>
    <g id="Group_1249" data-name="Group 1249" transform="translate(58.348 11.831) rotate(30)">
      <path id="Path_1682" data-name="Path 1682" d="M10.549,0h-9.3A1.235,1.235,0,0,0,.063,1.611,6.155,6.155,0,0,0,5.9,5.8a6.155,6.155,0,0,0,5.834-4.194A1.234,1.234,0,0,0,10.549,0Z" transform="translate(17.352 49.513)" fill="none" stroke="#2db1cf" stroke-width="2"/>
      <path id="Path_1683" data-name="Path 1683" d="M46.466,42.324l-6.317-5.166V22.241A17.033,17.033,0,0,0,27.167,5.753v-1.8a3.954,3.954,0,1,0-7.908,0V5.737a17.033,17.033,0,0,0-13.048,16.5V37.1H6.181L.465,42.444c-1.23,1.7.123,3.949,2.375,3.949H44.184C46.511,46.393,47.847,44.01,46.466,42.324Z" transform="translate(0 0)" fill="none" stroke="#2db1cf" stroke-width="2"/>
    </g>
  </g>
</svg>
