<svg xmlns="http://www.w3.org/2000/svg" xmlns:xlink="http://www.w3.org/1999/xlink" width="142" height="141" viewBox="0 0 142 141">
  <defs>
    <filter id="Rectangle_79" x="0" y="0" width="142" height="141" filterUnits="userSpaceOnUse">
      <feOffset dy="3" input="SourceAlpha"/>
      <feGaussianBlur stdDeviation="3" result="blur"/>
      <feFlood flood-opacity="0.161"/>
      <feComposite operator="in" in2="blur"/>
      <feComposite in="SourceGraphic"/>
    </filter>
    <clipPath id="clip-path">
      <rect id="Rectangle_227" data-name="Rectangle 227" width="52.079" height="57" fill="#2ebad9"/>
    </clipPath>
  </defs>
  <g id="Group_1619" data-name="Group 1619" transform="translate(-1495 -1589)">
    <g transform="matrix(1, 0, 0, 1, 1495, 1589)" filter="url(#Rectangle_79)">
      <rect id="Rectangle_79-2" data-name="Rectangle 79" width="124" height="123" rx="11" transform="translate(9 6)" fill="#fff"/>
    </g>
    <text id="Ootused_ja_unistused" data-name="Ootused ja
unistused" transform="translate(1567 1692)" fill="#9b9ca4" font-size="13" font-family="Averta-Semibold, Averta" font-weight="600"><tspan x="-33" y="0">Ootused ja</tspan><tspan x="-29" y="16">unistused</tspan></text>
    <g id="Group_1519" data-name="Group 1519" transform="translate(1539.961 1612)">
      <g id="Group_1518" data-name="Group 1518" clip-path="url(#clip-path)">
        <path id="Path_1885" data-name="Path 1885" d="M168.007,130.81a.914.914,0,0,1-.914-.914v-7.483a15.709,15.709,0,0,1,1.879-7l.262-.517c1.328-2.616,3.551-6.994,3.551-11.251a18.431,18.431,0,0,0-1.558-7.854.914.914,0,0,1,1.655-.776,20.231,20.231,0,0,1,1.731,8.63c0,4.694-2.347,9.316-3.749,12.078l-.259.512a13.924,13.924,0,0,0-1.684,6.176V129.9a.914.914,0,0,1-.914.914" transform="translate(-133.154 -75.299)" fill="#2ebad9"/>
        <path id="Path_1886" data-name="Path 1886" d="M31.824,98.5a.914.914,0,0,1-.914-.914v-6.5l-4.971.381a4.273,4.273,0,0,1-3.492-.9,4.836,4.836,0,0,1-1.431-3.7l-.19-6.485c-.6-.073-1.4-.168-1.815-.217A2.684,2.684,0,0,1,16.77,78.9a2.725,2.725,0,0,1,.177-2.576L19.538,70.9a4.035,4.035,0,0,0,.324-1.986,14.621,14.621,0,0,1,.223-4.5,15.387,15.387,0,0,1,1.465-4.149,14.338,14.338,0,0,1,8.614-7.119,21.481,21.481,0,0,1,13.57.076,17.835,17.835,0,0,1,4.04,2.01.914.914,0,1,1-1.024,1.514,15.991,15.991,0,0,0-3.626-1.8,19.847,19.847,0,0,0-12.358-.073c-.026.01-.053.019-.081.026a12.473,12.473,0,0,0-7.517,6.218,13.562,13.562,0,0,0-1.29,3.656,12.918,12.918,0,0,0-.195,3.973,5.87,5.87,0,0,1-.478,2.9l-.011.024-2.6,5.45c-.25.5-.27.8-.212.9.047.088.279.254.845.32.728.085,2.6.312,2.6.312a.914.914,0,0,1,.8.881l.214,7.284c0,.009,0,.018,0,.027a3.082,3.082,0,0,0,.812,2.347,2.559,2.559,0,0,0,2.078.453l.044,0,5.976-.458a.914.914,0,0,1,.984.911v7.485a.914.914,0,0,1-.914.914" transform="translate(-13.167 -41.502)" fill="#2ebad9"/>
        <path id="Path_1887" data-name="Path 1887" d="M40.462,201.768c-.518,0-.887-.027-1-.037a.914.914,0,0,1,.151-1.822c.967.078,3.751.058,5-.968a.914.914,0,1,1,1.162,1.411c-1.485,1.223-3.922,1.415-5.305,1.415" transform="translate(-30.775 -158.367)" fill="#2ebad9"/>
        <path id="Path_1888" data-name="Path 1888" d="M57.684,143.614a3.118,3.118,0,0,1-2.712-1.481.914.914,0,1,1,1.54-.985,1.322,1.322,0,0,0,1.22.638,1.8,1.8,0,0,0,1.341-.6.914.914,0,1,1,1.587.907,3.5,3.5,0,0,1-2.882,1.519h-.094" transform="translate(-43.692 -112.142)" fill="#2ebad9"/>
        <path id="Path_1889" data-name="Path 1889" d="M23.381,18.082H14.533a.914.914,0,0,1,0-1.828h8.848a4.626,4.626,0,0,0,4.236-2.492c.024-.053.047-.106.068-.159a3.973,3.973,0,0,0-.149-3.492A4.737,4.737,0,0,0,24.279,7.8a.922.922,0,0,1-.738-.814c0-.018,0-.036,0-.054A5.578,5.578,0,0,0,17.7,1.828a5.913,5.913,0,0,0-5.224,2.913.914.914,0,0,1-1.249.351,3.932,3.932,0,0,0-1.935-.5A3.46,3.46,0,0,0,5.661,7.84a2.939,2.939,0,0,0,.058.576A.914.914,0,0,1,4.965,9.5a3.531,3.531,0,0,0-3.138,3.33,3.131,3.131,0,0,0,.957,2.22,4.189,4.189,0,0,0,2.961,1.2h1a.914.914,0,0,1,0,1.828h-1a6.028,6.028,0,0,1-4.258-1.744A4.944,4.944,0,0,1,0,12.817,5.27,5.27,0,0,1,3.833,7.891c0-.017,0-.034,0-.051A5.284,5.284,0,0,1,9.292,2.763a5.82,5.82,0,0,1,2.045.369A7.824,7.824,0,0,1,17.7,0,7.46,7.46,0,0,1,25.3,6.176,6.425,6.425,0,0,1,29.143,9.24a5.833,5.833,0,0,1,.237,5.047c-.031.078-.065.156-.1.233a6.391,6.391,0,0,1-5.9,3.562M24.451,6.9h0Z" transform="translate(0)" fill="#2ebad9"/>
        <path id="Path_1890" data-name="Path 1890" d="M163.617,81.748H150.68a4.666,4.666,0,0,1-3.3-1.351,3.868,3.868,0,0,1-1.163-2.756,4.093,4.093,0,0,1,2.815-3.789,4.132,4.132,0,0,1,4.245-3.829,4.52,4.52,0,0,1,1.413.225A6,6,0,0,1,159.448,68a5.73,5.73,0,0,1,5.8,4.588,4.943,4.943,0,0,1,2.813,2.318,4.52,4.52,0,0,1,.185,3.909c-.025.062-.051.121-.078.18a4.933,4.933,0,0,1-4.549,2.756m-10.336-9.9a2.3,2.3,0,0,0-2.42,2.14,1.924,1.924,0,0,0,.038.375.914.914,0,0,1-.754,1.083,2.348,2.348,0,0,0-2.1,2.2,2.055,2.055,0,0,0,.632,1.456,2.827,2.827,0,0,0,2,.811h12.937a3.148,3.148,0,0,0,2.886-1.685c.016-.036.032-.073.047-.109a2.677,2.677,0,0,0-.1-2.352,3.23,3.23,0,0,0-2.223-1.57.92.92,0,0,1-.74-.869,3.85,3.85,0,0,0-4.04-3.509,4.094,4.094,0,0,0-3.619,2.012.914.914,0,0,1-1.249.351,2.641,2.641,0,0,0-1.3-.336" transform="translate(-116.521 -54.185)" fill="#2ebad9"/>
      </g>
    </g>
  </g>
</svg>
