<svg xmlns="http://www.w3.org/2000/svg" xmlns:xlink="http://www.w3.org/1999/xlink" width="634" height="643" viewBox="0 0 634 643">
  <defs>
    <filter id="Rectangle_125" x="239" y="502" width="141" height="141" filterUnits="userSpaceOnUse">
      <feOffset dy="3" input="SourceAlpha"/>
      <feGaussianBlur stdDeviation="3" result="blur"/>
      <feFlood flood-opacity="0.161"/>
      <feComposite operator="in" in2="blur"/>
      <feComposite in="SourceGraphic"/>
    </filter>
    <filter id="Rectangle_75" x="0" y="174" width="141" height="141" filterUnits="userSpaceOnUse">
      <feOffset dy="3" input="SourceAlpha"/>
      <feGaussianBlur stdDeviation="3" result="blur-2"/>
      <feFlood flood-opacity="0.161"/>
      <feComposite operator="in" in2="blur-2"/>
      <feComposite in="SourceGraphic"/>
    </filter>
    <filter id="Rectangle_77" x="370" y="34" width="141" height="141" filterUnits="userSpaceOnUse">
      <feOffset dy="3" input="SourceAlpha"/>
      <feGaussianBlur stdDeviation="3" result="blur-3"/>
      <feFlood flood-opacity="0.161"/>
      <feComposite operator="in" in2="blur-3"/>
      <feComposite in="SourceGraphic"/>
    </filter>
    <filter id="Rectangle_76" x="155" y="0" width="141" height="141" filterUnits="userSpaceOnUse">
      <feOffset dy="3" input="SourceAlpha"/>
      <feGaussianBlur stdDeviation="3" result="blur-4"/>
      <feFlood flood-opacity="0.161"/>
      <feComposite operator="in" in2="blur-4"/>
      <feComposite in="SourceGraphic"/>
    </filter>
    <filter id="Rectangle_79" x="443" y="418" width="142" height="141" filterUnits="userSpaceOnUse">
      <feOffset dy="3" input="SourceAlpha"/>
      <feGaussianBlur stdDeviation="3" result="blur-5"/>
      <feFlood flood-opacity="0.161"/>
      <feComposite operator="in" in2="blur-5"/>
      <feComposite in="SourceGraphic"/>
    </filter>
    <clipPath id="clip-path">
      <rect id="Rectangle_227" data-name="Rectangle 227" width="52.079" height="57" fill="#2ebad9"/>
    </clipPath>
    <filter id="Rectangle_78" x="32" y="382" width="141" height="141" filterUnits="userSpaceOnUse">
      <feOffset dy="3" input="SourceAlpha"/>
      <feGaussianBlur stdDeviation="3" result="blur-6"/>
      <feFlood flood-opacity="0.161"/>
      <feComposite operator="in" in2="blur-6"/>
      <feComposite in="SourceGraphic"/>
    </filter>
    <clipPath id="clip-path-2">
      <rect id="Rectangle_226" data-name="Rectangle 226" width="57" height="57" transform="translate(0 0.347)" fill="none" stroke="#2ebad9" stroke-linecap="round" stroke-width="2"/>
    </clipPath>
    <clipPath id="clip-path-3">
      <rect id="Rectangle_128" data-name="Rectangle 128" width="121.706" height="117.724" fill="none"/>
    </clipPath>
    <clipPath id="clip-path-4">
      <rect id="Rectangle_126" data-name="Rectangle 126" width="79.96" height="79.957" fill="none"/>
    </clipPath>
    <clipPath id="clip-path-5">
      <rect id="Rectangle_127" data-name="Rectangle 127" width="83.436" height="83.433" fill="none"/>
    </clipPath>
    <filter id="Rectangle_80" x="493" y="226" width="141" height="141" filterUnits="userSpaceOnUse">
      <feOffset dy="3" input="SourceAlpha"/>
      <feGaussianBlur stdDeviation="3" result="blur-7"/>
      <feFlood flood-opacity="0.161"/>
      <feComposite operator="in" in2="blur-7"/>
      <feComposite in="SourceGraphic"/>
    </filter>
    <clipPath id="clip-path-6">
      <rect id="Rectangle_229" data-name="Rectangle 229" width="55.108" height="57" fill="#fff"/>
    </clipPath>
  </defs>
  <g id="Group_1574" data-name="Group 1574" transform="translate(-1052 -1171)">
    <g id="Group_1388" data-name="Group 1388">
      <g id="Ellipse_205" data-name="Ellipse 205" transform="translate(1111 1244)" fill="none" stroke="#707070" stroke-linecap="round" stroke-width="1" stroke-dasharray="0 10">
        <circle cx="250" cy="250" r="250" stroke="none"/>
        <circle cx="250" cy="250" r="249.5" fill="none"/>
      </g>
      <g transform="matrix(1, 0, 0, 1, 1052, 1171)" filter="url(#Rectangle_125)">
        <rect id="Rectangle_125-2" data-name="Rectangle 125" width="123" height="123" rx="11" transform="translate(248 508)" fill="#2ebad9"/>
      </g>
      <g id="Group_1622" data-name="Group 1622">
        <g transform="matrix(1, 0, 0, 1, 1052, 1171)" filter="url(#Rectangle_75)">
          <rect id="Rectangle_75-2" data-name="Rectangle 75" width="123" height="123" rx="11" transform="translate(9 180)" fill="#2db1cf"/>
        </g>
        <text id="Meeldetuletaja" transform="translate(1122 1450)" fill="#fff" font-size="13" font-family="Averta-Semibold, Averta" font-weight="600"><tspan x="-45" y="0">Meeldetuletaja</tspan></text>
        <g id="Group_1249" data-name="Group 1249" transform="translate(1118.498 1362.675) rotate(30)">
          <path id="Path_1682" data-name="Path 1682" d="M10.345,0H1.222A1.211,1.211,0,0,0,.062,1.58,6.036,6.036,0,0,0,5.783,5.692,6.036,6.036,0,0,0,11.5,1.58,1.21,1.21,0,0,0,10.345,0Z" transform="translate(17.016 48.553)" fill="none" stroke="#fff" stroke-width="1.5"/>
          <path id="Path_1683" data-name="Path 1683" d="M45.566,41.5l-6.195-5.066V21.81A16.7,16.7,0,0,0,26.641,5.641V3.877a3.877,3.877,0,1,0-7.755,0V5.626A16.7,16.7,0,0,0,6.091,21.81V36.383H6.062L.456,41.622c-1.207,1.666.12,3.873,2.329,3.873H43.329C45.61,45.495,46.92,43.157,45.566,41.5Z" transform="translate(0 0)" fill="none" stroke="#fff" stroke-width="1.5"/>
        </g>
      </g>
      <g id="Group_1617" data-name="Group 1617">
        <g transform="matrix(1, 0, 0, 1, 1052, 1171)" filter="url(#Rectangle_77)">
          <rect id="Rectangle_77-2" data-name="Rectangle 77" width="123" height="123" rx="11" transform="translate(379 40)" fill="#fff"/>
        </g>
        <text id="Hetke_hinnang" data-name="Hetke hinnang" transform="translate(1493 1313)" fill="#9b9ca4" font-size="13" font-family="Averta-Semibold, Averta" font-weight="600"><tspan x="-44" y="0">Hetke hinnang</tspan></text>
        <g id="Group_1267" data-name="Group 1267" transform="translate(1447.325 1231.627)">
          <g id="outline" transform="translate(0)">
            <path id="Path_1708" data-name="Path 1708" d="M182.718,266.3a40.558,40.558,0,0,1,5.59,20.648.844.844,0,0,1-.845.845h0a.844.844,0,0,1-.845-.845,38.814,38.814,0,0,0-5.353-19.791,46.853,46.853,0,0,0-2.739-4.08.845.845,0,0,1,1.352-1.014C180.892,263.429,181.839,264.849,182.718,266.3Zm-54.11-19.915a40.117,40.117,0,0,0-26.046,24.491,41.743,41.743,0,0,0-2.7,16.173.852.852,0,0,1-.823.868h-.023a.847.847,0,0,1-.845-.823,43.374,43.374,0,0,1,2.818-16.827,41.815,41.815,0,0,1,27.128-25.505,48.691,48.691,0,0,1,41.712,6.774.843.843,0,1,1-.958,1.386A47.014,47.014,0,0,0,128.608,246.388Zm53.174,5.444a.841.841,0,0,0-1.116-1.217c-5.782,3.528-12.1,7.4-18.461,11.293-5.624,3.449-11.271,6.909-16.579,10.166-.428-.079-.845-.147-1.285-.192a14.579,14.579,0,0,0-6.988,1.014,15.312,15.312,0,0,0,.124,28.447,14.8,14.8,0,0,0,5.444,1.014,15.592,15.592,0,0,0,11.316-4.79,14.4,14.4,0,0,0,3.911-10.459,16.994,16.994,0,0,0-.293-2.277c3.516-4.8,7.168-9.884,10.707-14.8C172.958,263.936,177.489,257.636,181.783,251.832ZM153.02,296.407a13.587,13.587,0,1,1-15.035-21.932,12.72,12.72,0,0,1,7.506-.7,1.176,1.176,0,0,0,.192.045,13.193,13.193,0,0,1,4,1.691,14.733,14.733,0,0,1,6.447,9.3.041.041,0,0,0,.011.034,14.814,14.814,0,0,1,.327,2.356A12.672,12.672,0,0,1,153.02,296.407Zm4.283-13.682a16.376,16.376,0,0,0-6.717-8.644,14.929,14.929,0,0,0-2.75-1.375c4.925-3.009,10.1-6.187,15.26-9.354,5.027-3.077,10.042-6.154,14.776-9.05-3.516,4.8-7.145,9.839-10.662,14.742C163.93,273.573,160.572,278.25,157.3,282.724Zm-14.742-35.457.056,6.233a.859.859,0,0,1-.834.857h-.011a.842.842,0,0,1-.845-.834l-.056-6.233a.859.859,0,0,1,.834-.857h.011A.842.842,0,0,1,142.561,247.267ZM119.22,263.519a.84.84,0,0,1-.6,1.443.873.873,0,0,1-.6-.237l-4.452-4.362a.845.845,0,0,1,1.183-1.206Zm-8.611,24.468a.859.859,0,0,1-.834.857l-6.233.056h-.011a.842.842,0,0,1-.845-.834.859.859,0,0,1,.834-.857l6.233-.056h.011A.842.842,0,0,1,110.609,287.988Zm72.943,0a.859.859,0,0,1-.834.857l-6.233.056h-.011a.842.842,0,0,1-.845-.834.859.859,0,0,1,.834-.857l6.233-.056h.011A.849.849,0,0,1,183.552,287.988Z" transform="translate(-98.15 -242.728)" fill="#2ebad9"/>
          </g>
          <path id="Path_1709" data-name="Path 1709" d="M73.826,72.551a3.493,3.493,0,0,0-2.484,1.033l-.307.3-.3-.3a3.516,3.516,0,1,0-4.976,4.969l4.836,4.84a.626.626,0,0,0,.885,0l4.839-4.839a3.519,3.519,0,0,0-2.49-6Zm1.6,5.118-4.4,4.4L67.389,78.42l-.747-.752a2.264,2.264,0,1,1,3.205-3.2l.745.745a.626.626,0,0,0,.884,0l.749-.745h0a2.264,2.264,0,0,1,3.2,3.2Z" transform="translate(-25.999 -32.707)" fill="#2ebad9"/>
        </g>
      </g>
      <g id="Group_1616" data-name="Group 1616">
        <g transform="matrix(1, 0, 0, 1, 1052, 1171)" filter="url(#Rectangle_76)">
          <rect id="Rectangle_76-2" data-name="Rectangle 76" width="123" height="123" rx="11" transform="translate(164 6)" fill="#fff"/>
        </g>
        <text id="Saame_tuttavaks" data-name="Saame tuttavaks" transform="translate(1278 1278)" fill="#9b9ca4" font-size="13" font-family="Averta-Semibold, Averta" font-weight="600"><tspan x="-51" y="0">Saame tuttavaks</tspan></text>
        <path id="_2316250_danger_fire_flame_motivation_passion_icon" data-name="2316250_danger_fire_flame_motivation_passion_icon" d="M48.327,22.194l-.136-.061A15.36,15.36,0,0,1,39.259,5,23.023,23.023,0,0,0,24.008,24.7q-.061.743-.082,1.493v.5a22.9,22.9,0,0,0,3.859,12.756,7.656,7.656,0,0,1-8.652-7.261A23.016,23.016,0,0,0,37.855,66.317,10.554,10.554,0,0,1,31.589,56.9v-.225a10.54,10.54,0,0,1,6.388-9.695h.055a8.624,8.624,0,0,0,5.209-7.915A10.56,10.56,0,0,1,48.8,47.433a4.478,4.478,0,0,0,.034.682v.225a10.492,10.492,0,0,1-1.766,5.849L46.22,55.45l1.534.2a4.853,4.853,0,0,0,.614.041A4.772,4.772,0,0,0,52.26,53.7a10.533,10.533,0,0,1-2.277,9.988A23.009,23.009,0,0,0,62.262,43.86v-.5A23.016,23.016,0,0,0,48.326,22.194ZM60.346,43.806a21.094,21.094,0,0,1-5.809,14.078,11.919,11.919,0,0,0,.061-1.214,12.483,12.483,0,0,0-.5-3.484L53,49.4l-2.3,3.2a2.863,2.863,0,0,1-1.05.893,12.422,12.422,0,0,0,1.111-5.147V48.08a5.437,5.437,0,0,0-.041-.811,12.415,12.415,0,0,0-6.559-9.926l-2.816-1.5v3.191a6.722,6.722,0,0,1-4.091,6.136l-.048.055a12.456,12.456,0,0,0-7.547,11.454v.266A12.394,12.394,0,0,0,31.323,62.9a21.135,21.135,0,0,1-12.313-25.45A9.545,9.545,0,0,0,26.8,41.433a9.7,9.7,0,0,0,1.227-.082l3.068-.4-1.718-2.55a20.991,20.991,0,0,1-3.538-11.692c0-.15,0-.307,0-.457,0-.45.034-.914.075-1.364a21.135,21.135,0,0,1,11.1-16.819A17.255,17.255,0,0,0,47.44,23.9h.041l.1.041a21.08,21.08,0,0,1,12.769,19.41C60.353,43.5,60.346,43.656,60.346,43.806Z" transform="translate(1237.738 1195.124)" fill="#2ebad9"/>
      </g>
      <g id="Group_1619" data-name="Group 1619">
        <g transform="matrix(1, 0, 0, 1, 1052, 1171)" filter="url(#Rectangle_79)">
          <rect id="Rectangle_79-2" data-name="Rectangle 79" width="124" height="123" rx="11" transform="translate(452 424)" fill="#fff"/>
        </g>
        <text id="Ootused_ja_unistused" data-name="Ootused ja
unistused" transform="translate(1567 1692)" fill="#9b9ca4" font-size="13" font-family="Averta-Semibold, Averta" font-weight="600"><tspan x="-33" y="0">Ootused ja</tspan><tspan x="-29" y="16">unistused</tspan></text>
        <g id="Group_1519" data-name="Group 1519" transform="translate(1539.961 1612)">
          <g id="Group_1518" data-name="Group 1518" clip-path="url(#clip-path)">
            <path id="Path_1885" data-name="Path 1885" d="M168.007,130.81a.914.914,0,0,1-.914-.914v-7.483a15.709,15.709,0,0,1,1.879-7l.262-.517c1.328-2.616,3.551-6.994,3.551-11.251a18.431,18.431,0,0,0-1.558-7.854.914.914,0,0,1,1.655-.776,20.231,20.231,0,0,1,1.731,8.63c0,4.694-2.347,9.316-3.749,12.078l-.259.512a13.924,13.924,0,0,0-1.684,6.176V129.9a.914.914,0,0,1-.914.914" transform="translate(-133.154 -75.299)" fill="#2ebad9"/>
            <path id="Path_1886" data-name="Path 1886" d="M31.824,98.5a.914.914,0,0,1-.914-.914v-6.5l-4.971.381a4.273,4.273,0,0,1-3.492-.9,4.836,4.836,0,0,1-1.431-3.7l-.19-6.485c-.6-.073-1.4-.168-1.815-.217A2.684,2.684,0,0,1,16.77,78.9a2.725,2.725,0,0,1,.177-2.576L19.538,70.9a4.035,4.035,0,0,0,.324-1.986,14.621,14.621,0,0,1,.223-4.5,15.387,15.387,0,0,1,1.465-4.149,14.338,14.338,0,0,1,8.614-7.119,21.481,21.481,0,0,1,13.57.076,17.835,17.835,0,0,1,4.04,2.01.914.914,0,1,1-1.024,1.514,15.991,15.991,0,0,0-3.626-1.8,19.847,19.847,0,0,0-12.358-.073c-.026.01-.053.019-.081.026a12.473,12.473,0,0,0-7.517,6.218,13.562,13.562,0,0,0-1.29,3.656,12.918,12.918,0,0,0-.195,3.973,5.87,5.87,0,0,1-.478,2.9l-.011.024-2.6,5.45c-.25.5-.27.8-.212.9.047.088.279.254.845.32.728.085,2.6.312,2.6.312a.914.914,0,0,1,.8.881l.214,7.284c0,.009,0,.018,0,.027a3.082,3.082,0,0,0,.812,2.347,2.559,2.559,0,0,0,2.078.453l.044,0,5.976-.458a.914.914,0,0,1,.984.911v7.485a.914.914,0,0,1-.914.914" transform="translate(-13.167 -41.502)" fill="#2ebad9"/>
            <path id="Path_1887" data-name="Path 1887" d="M40.462,201.768c-.518,0-.887-.027-1-.037a.914.914,0,0,1,.151-1.822c.967.078,3.751.058,5-.968a.914.914,0,1,1,1.162,1.411c-1.485,1.223-3.922,1.415-5.305,1.415" transform="translate(-30.775 -158.367)" fill="#2ebad9"/>
            <path id="Path_1888" data-name="Path 1888" d="M57.684,143.614a3.118,3.118,0,0,1-2.712-1.481.914.914,0,1,1,1.54-.985,1.322,1.322,0,0,0,1.22.638,1.8,1.8,0,0,0,1.341-.6.914.914,0,1,1,1.587.907,3.5,3.5,0,0,1-2.882,1.519h-.094" transform="translate(-43.692 -112.142)" fill="#2ebad9"/>
            <path id="Path_1889" data-name="Path 1889" d="M23.381,18.082H14.533a.914.914,0,0,1,0-1.828h8.848a4.626,4.626,0,0,0,4.236-2.492c.024-.053.047-.106.068-.159a3.973,3.973,0,0,0-.149-3.492A4.737,4.737,0,0,0,24.279,7.8a.922.922,0,0,1-.738-.814c0-.018,0-.036,0-.054A5.578,5.578,0,0,0,17.7,1.828a5.913,5.913,0,0,0-5.224,2.913.914.914,0,0,1-1.249.351,3.932,3.932,0,0,0-1.935-.5A3.46,3.46,0,0,0,5.661,7.84a2.939,2.939,0,0,0,.058.576A.914.914,0,0,1,4.965,9.5a3.531,3.531,0,0,0-3.138,3.33,3.131,3.131,0,0,0,.957,2.22,4.189,4.189,0,0,0,2.961,1.2h1a.914.914,0,0,1,0,1.828h-1a6.028,6.028,0,0,1-4.258-1.744A4.944,4.944,0,0,1,0,12.817,5.27,5.27,0,0,1,3.833,7.891c0-.017,0-.034,0-.051A5.284,5.284,0,0,1,9.292,2.763a5.82,5.82,0,0,1,2.045.369A7.824,7.824,0,0,1,17.7,0,7.46,7.46,0,0,1,25.3,6.176,6.425,6.425,0,0,1,29.143,9.24a5.833,5.833,0,0,1,.237,5.047c-.031.078-.065.156-.1.233a6.391,6.391,0,0,1-5.9,3.562M24.451,6.9h0Z" transform="translate(0)" fill="#2ebad9"/>
            <path id="Path_1890" data-name="Path 1890" d="M163.617,81.748H150.68a4.666,4.666,0,0,1-3.3-1.351,3.868,3.868,0,0,1-1.163-2.756,4.093,4.093,0,0,1,2.815-3.789,4.132,4.132,0,0,1,4.245-3.829,4.52,4.52,0,0,1,1.413.225A6,6,0,0,1,159.448,68a5.73,5.73,0,0,1,5.8,4.588,4.943,4.943,0,0,1,2.813,2.318,4.52,4.52,0,0,1,.185,3.909c-.025.062-.051.121-.078.18a4.933,4.933,0,0,1-4.549,2.756m-10.336-9.9a2.3,2.3,0,0,0-2.42,2.14,1.924,1.924,0,0,0,.038.375.914.914,0,0,1-.754,1.083,2.348,2.348,0,0,0-2.1,2.2,2.055,2.055,0,0,0,.632,1.456,2.827,2.827,0,0,0,2,.811h12.937a3.148,3.148,0,0,0,2.886-1.685c.016-.036.032-.073.047-.109a2.677,2.677,0,0,0-.1-2.352,3.23,3.23,0,0,0-2.223-1.57.92.92,0,0,1-.74-.869,3.85,3.85,0,0,0-4.04-3.509,4.094,4.094,0,0,0-3.619,2.012.914.914,0,0,1-1.249.351,2.641,2.641,0,0,0-1.3-.336" transform="translate(-116.521 -54.185)" fill="#2ebad9"/>
          </g>
        </g>
      </g>
      <g id="Group_1620" data-name="Group 1620">
        <text id="Märkamine_ja_väärtustamine" data-name="Märkamine ja
väärtustamine" transform="translate(1363 1773)" fill="#fff" font-size="14" font-family="Averta-Semibold, Averta" font-weight="600"><tspan x="-45" y="0">Märkamine ja</tspan><tspan x="-47" y="18">väärtustamine</tspan></text>
        <g id="Group_1520" data-name="Group 1520" transform="translate(1329.61 1706.025)">
          <path id="Path_1799" data-name="Path 1799" d="M30.7,45.517c-18.009,0-29.027-18.465-29.489-19.249l-.29-.5.288-.5C1.666,24.487,12.565,6.02,30.7,6.02S59.735,24.489,60.191,25.273l.288.5-.29.5C59.727,27.052,48.709,45.517,30.7,45.517ZM3.226,25.767C5.11,28.693,15.42,43.543,30.7,43.543c15.3,0,25.592-14.847,27.474-17.776C56.306,22.836,46.086,7.995,30.7,7.995S5.094,22.834,3.226,25.767Z" transform="translate(-0.921 -6.02)" fill="#fff"/>
        </g>
        <g id="Group_1521" data-name="Group 1521" transform="translate(1351.746 1717.941)">
          <path id="Path_1800" data-name="Path 1800" d="M19.331,27.182A7.83,7.83,0,0,1,12.5,15.525a.87.87,0,1,1,1.517.851,6.082,6.082,0,1,0,2.3-2.32.871.871,0,0,1-.861-1.514,7.832,7.832,0,1,1,3.874,14.64Z" transform="translate(-11.5 -11.519)" fill="#fff"/>
        </g>
        <path id="Path_1891" data-name="Path 1891" d="M21.921,35.863A13.938,13.938,0,0,1,8,21.941a13.8,13.8,0,0,1,2.755-8.311.87.87,0,1,1,1.4,1.039,12.16,12.16,0,1,0,2.462-2.475.869.869,0,1,1-1.044-1.39A13.793,13.793,0,0,1,21.921,8.02a13.921,13.921,0,0,1,0,27.843Z" transform="translate(1337.656 1703.832)" fill="#fff"/>
        <line id="Line_108" data-name="Line 108" x2="2" y2="11" transform="translate(1373.39 1695)" fill="none" stroke="#fff" stroke-linecap="round" stroke-width="2"/>
        <line id="Line_109" data-name="Line 109" x1="7" y2="9" transform="translate(1381.39 1699)" fill="none" stroke="#fff" stroke-linecap="round" stroke-width="2"/>
        <line id="Line_110" data-name="Line 110" x1="10" y2="3.852" transform="translate(1386.39 1708)" fill="none" stroke="#fff" stroke-linecap="round" stroke-width="2"/>
      </g>
      <g id="Group_1621" data-name="Group 1621">
        <g transform="matrix(1, 0, 0, 1, 1052, 1171)" filter="url(#Rectangle_78)">
          <rect id="Rectangle_78-2" data-name="Rectangle 78" width="123" height="123" rx="11" transform="translate(41 388)" fill="#fff"/>
        </g>
        <text id="Suhtega_rahulolu" data-name="Suhtega rahulolu" transform="translate(1156 1661)" fill="#9b9ca4" font-size="13" font-family="Averta-Semibold, Averta" font-weight="600"><tspan x="-52" y="0">Suhtega rahulolu</tspan></text>
        <g id="Group_1517" data-name="Group 1517" transform="translate(1126 1576.653)">
          <g id="Group_1516" data-name="Group 1516" clip-path="url(#clip-path-2)">
            <path id="Path_1882" data-name="Path 1882" d="M9.792,18.166a9.87,9.87,0,0,0,18.62,0" transform="translate(9.571 17.757)" fill="none" stroke="#2ebad9" stroke-linecap="round" stroke-width="2"/>
            <circle id="Ellipse_241" data-name="Ellipse 241" cx="27.685" cy="27.685" r="27.685" transform="translate(0.989 0.989)" fill="none" stroke="#2ebad9" stroke-linecap="round" stroke-width="2"/>
            <path id="Path_1883" data-name="Path 1883" d="M5.793,12.091a8.973,8.973,0,0,1,12.683,0" transform="translate(5.662 9.252)" fill="none" stroke="#2ebad9" stroke-linecap="round" stroke-width="2"/>
            <path id="Path_1884" data-name="Path 1884" d="M16.793,12.091a8.973,8.973,0,0,1,12.683,0" transform="translate(16.415 9.252)" fill="none" stroke="#2ebad9" stroke-linecap="round" stroke-width="2"/>
          </g>
        </g>
      </g>
    </g>
    <g id="Group_1297" data-name="Group 1297" transform="translate(1308.147 1415.008)">
      <g id="Group_1296" data-name="Group 1296" clip-path="url(#clip-path-3)">
        <g id="Group_1292" data-name="Group 1292" transform="translate(40.008 1.738)">
          <g id="Group_1291" data-name="Group 1291">
            <g id="Group_1290" data-name="Group 1290" clip-path="url(#clip-path-4)">
              <path id="Path_1820" data-name="Path 1820" d="M216.634,39.162c-4.929-4.927-12.458-8.245-22.58-8.245h0c0-10.125-3.314-17.651-8.243-22.58-14.283-14.282-42.117-6.755-42.117,22.58V51.438h0c7.158-7.158,14.826-10.135,21.8-10.137,18.355,0,31.886,20.643,18.642,39.978h9.925c29.337,0,36.865-27.833,22.58-42.116" transform="translate(-143.691 -1.321)" fill="#e6a2b5"/>
            </g>
          </g>
        </g>
        <g id="Group_1295" data-name="Group 1295" transform="translate(38.27)" opacity="0">
          <g id="Group_1294" data-name="Group 1294">
            <g id="Group_1293" data-name="Group 1293" clip-path="url(#clip-path-5)">
              <path id="Path_1821" data-name="Path 1821" d="M216.634,39.162c-4.929-4.927-12.458-8.245-22.58-8.245h0c0-10.125-3.314-17.651-8.243-22.58-14.283-14.282-42.117-6.755-42.117,22.58V51.438h0c7.158-7.158,14.826-10.135,21.8-10.137,18.355,0,31.886,20.643,18.642,39.978h9.925C223.391,81.278,230.919,53.444,216.634,39.162Z" transform="translate(-141.953 0.417)" fill="none" stroke="#fff" stroke-width="2.642"/>
            </g>
          </g>
        </g>
        <path id="Path_1822" data-name="Path 1822" d="M154.958,69.564h0V42.383h0c-6.521-6.521-13.5-9.234-19.853-9.234-18.4,0-31.478,22.777-12.584,41.671l32.437,32.437h0L187.394,74.82a37.107,37.107,0,0,0,4.4-5.255H154.958Z" transform="translate(-113.284 10.467)" fill="#2db1cf"/>
        <path id="Path_1823" data-name="Path 1823" d="M164.81,33.149c-6.348,0-13.334,2.713-19.853,9.234h0V69.564h36.835c12.065-17.613-.26-36.419-16.98-36.416" transform="translate(-103.284 10.467)" fill="#1f88a0"/>
      </g>
    </g>
    <g id="Group_1618" data-name="Group 1618">
      <g transform="matrix(1, 0, 0, 1, 1052, 1171)" filter="url(#Rectangle_80)">
        <rect id="Rectangle_80-2" data-name="Rectangle 80" width="123" height="123" rx="11" transform="translate(502 232)" fill="#2ebad9"/>
      </g>
      <text id="Tajumine" transform="translate(1616 1505)" fill="#fff" font-size="13" font-family="Averta-Semibold, Averta" font-weight="600"><tspan x="-27" y="0">Tajumine</tspan></text>
      <g id="Group_1526" data-name="Group 1526" transform="translate(1623.961 1412.762)">
        <g id="Group_1525" data-name="Group 1525" transform="translate(-36 9)" clip-path="url(#clip-path-6)">
          <path id="Path_1894" data-name="Path 1894" d="M109.143,68.7c-1.67-.9-4.6-.381-6.43,2.041-.432.571-.784,1.088-1.091,1.563V61.337a3.484,3.484,0,0,0-3.516-3.442,3.53,3.53,0,0,0-1.926.569v-1.08a3.518,3.518,0,0,0-7.029-.146,3.548,3.548,0,0,0-1.964-.588,3.484,3.484,0,0,0-3.516,3.443v1.6a3.549,3.549,0,0,0-1.96-.586A3.484,3.484,0,0,0,78.2,64.551v18.5a10.771,10.771,0,0,0,3.5,8.129v3.091a.778.778,0,0,0,1.556,0V90.813c0-.019-.01-.036-.011-.055a.827.827,0,0,0-.268-.529c-.015-.013-.023-.031-.039-.043a9.166,9.166,0,0,1-3.182-7.138v-18.5a1.961,1.961,0,0,1,3.92,0V70.8a.778.778,0,1,0,1.556,0v-10.7a1.96,1.96,0,0,1,3.9-.169V70.4a.778.778,0,0,0,1.556,0V60.182a.723.723,0,0,0,.018-.088v-2.71a1.961,1.961,0,0,1,3.92,0V70.4a.778.778,0,0,0,1.556,0V61.084a1.957,1.957,0,0,1,3.886.253V74.4c-3.085.622-5.321,1.943-6.631,3.949a8.652,8.652,0,0,0-1.076,6.393.78.78,0,0,0,.754.585.791.791,0,0,0,.194-.025.778.778,0,0,0,.56-.948,7.1,7.1,0,0,1,.872-5.154c1.153-1.766,3.25-2.909,6.231-3.4.017,0,.03-.014.047-.018a.771.771,0,0,0,.188-.071.709.709,0,0,0,.078-.043.764.764,0,0,0,.156-.147c.013-.016.03-.028.042-.045s.008-.007.011-.012c.236-.354.463-.73.71-1.142a28.151,28.151,0,0,1,1.755-2.652c1.518-2.015,3.643-2.042,4.447-1.609.366.2.308.36.28.437-.473,1.313-2.074,4.964-3.768,8.828-.625,1.423-1.258,2.87-1.85,4.231-2.088,4.8-3.839,6.542-3.853,6.558l0,.006a.779.779,0,0,0-.159.23c0,.007-.011.013-.014.02a.775.775,0,0,0-.062.3v3.583a.778.778,0,0,0,1.556,0V90.991a25.881,25.881,0,0,0,3.963-6.8c.592-1.36,1.225-2.805,1.848-4.225,1.705-3.891,3.317-7.565,3.807-8.927a1.874,1.874,0,0,0-1-2.334" transform="translate(-55.154 -38.047)" fill="#fff"/>
          <path id="Path_1895" data-name="Path 1895" d="M.88,2.871C.706,4.192-.381,12.715.141,16.373a4.711,4.711,0,0,0,1.7,3.339,2.964,2.964,0,0,0,2.132.541,7.789,7.789,0,0,0,.971,2.17,3.436,3.436,0,0,0,3.681,1.5c.1.174.194.35.3.514A3.785,3.785,0,0,0,12.809,26c1.355,3.047,3.5,7.353,5.015,7.876a1.135,1.135,0,0,0,.965-.076c2.264-1.312,1.665-4.357-.232-9.518A20.975,20.975,0,0,1,17.4,14.833a1.435,1.435,0,0,1,.859.142,4.205,4.205,0,0,1,1.547,1.5,9.667,9.667,0,0,0,2.283,2.343,3.549,3.549,0,0,0,3.453.262,1.882,1.882,0,0,0,1.081-1.149,1.931,1.931,0,0,0-.173-1.608L22.118,9.092a8.749,8.749,0,0,0-3.406-3.251l-4.651-3.18L12.756.318a.62.62,0,1,0-1.083.6l1.376,2.47a.634.634,0,0,0,.192.21l4.832,3.3a7.627,7.627,0,0,1,2.983,2.828l4.332,7.238a.687.687,0,0,1,.062.576.636.636,0,0,1-.367.394,2.34,2.34,0,0,1-2.295-.137,8.539,8.539,0,0,1-1.993-2.068A5.077,5.077,0,0,0,18.7,13.818a2.35,2.35,0,0,0-1.868-.089,1.189,1.189,0,0,0-.63.751,21.574,21.574,0,0,0,1.194,10.228c1.895,5.154,2.1,7.252.851,8-.727-.115-2.631-3.4-4.472-7.593,0,0,0-.009,0-.013s-.017-.027-.023-.042c-.317-.723-.632-1.47-.939-2.235l-1.116-5.193a.62.62,0,1,0-1.212.26l1.127,5.244a.678.678,0,0,0,.031.1c.126.315.353.874.651,1.574A2.437,2.437,0,0,1,9.965,23.77a14.113,14.113,0,0,1-1.929-6.817.619.619,0,0,0-.619-.6H7.4a.62.62,0,0,0-.6.64,16.259,16.259,0,0,0,1.25,5.775A2.191,2.191,0,0,1,5.96,21.716C4.671,19.855,4.5,15.9,4.5,15.861a.62.62,0,0,0-.619-.6H3.862a.62.62,0,0,0-.6.642,21,21,0,0,0,.4,3.132,1.794,1.794,0,0,1-1.1-.336A3.566,3.566,0,0,1,1.367,16.2c-.53-3.715.749-13.225.762-13.32a.623.623,0,0,0-.037-.31L1.24.393A.621.621,0,0,0,.663,0,.607.607,0,0,0,.437.043a.619.619,0,0,0-.351.8Z" transform="translate(0 0.001)" fill="#fff"/>
        </g>
      </g>
    </g>
  </g>
</svg>
