<svg xmlns="http://www.w3.org/2000/svg" xmlns:xlink="http://www.w3.org/1999/xlink" width="141" height="141" viewBox="0 0 141 141">
  <defs>
    <filter id="Rectangle_80" x="0" y="0" width="141" height="141" filterUnits="userSpaceOnUse">
      <feOffset dy="3" input="SourceAlpha"/>
      <feGaussianBlur stdDeviation="3" result="blur"/>
      <feFlood flood-opacity="0.161"/>
      <feComposite operator="in" in2="blur"/>
      <feComposite in="SourceGraphic"/>
    </filter>
    <clipPath id="clip-path">
      <rect id="Rectangle_229" data-name="Rectangle 229" width="55.108" height="57" fill="#fff"/>
    </clipPath>
  </defs>
  <g id="Group_1618" data-name="Group 1618" transform="translate(-1545 -1397)">
    <g transform="matrix(1, 0, 0, 1, 1545, 1397)" filter="url(#Rectangle_80)">
      <rect id="Rectangle_80-2" data-name="Rectangle 80" width="123" height="123" rx="11" transform="translate(9 6)" fill="#2ebad9"/>
    </g>
    <text id="Tajumine" transform="translate(1616 1505)" fill="#fff" font-size="13" font-family="Averta-Semibold, Averta" font-weight="600"><tspan x="-27" y="0">Tajumine</tspan></text>
    <g id="Group_1526" data-name="Group 1526" transform="translate(1623.961 1412.762)">
      <g id="Group_1525" data-name="Group 1525" transform="translate(-36 9)" clip-path="url(#clip-path)">
        <path id="Path_1894" data-name="Path 1894" d="M109.143,68.7c-1.67-.9-4.6-.381-6.43,2.041-.432.571-.784,1.088-1.091,1.563V61.337a3.484,3.484,0,0,0-3.516-3.442,3.53,3.53,0,0,0-1.926.569v-1.08a3.518,3.518,0,0,0-7.029-.146,3.548,3.548,0,0,0-1.964-.588,3.484,3.484,0,0,0-3.516,3.443v1.6a3.549,3.549,0,0,0-1.96-.586A3.484,3.484,0,0,0,78.2,64.551v18.5a10.771,10.771,0,0,0,3.5,8.129v3.091a.778.778,0,0,0,1.556,0V90.813c0-.019-.01-.036-.011-.055a.827.827,0,0,0-.268-.529c-.015-.013-.023-.031-.039-.043a9.166,9.166,0,0,1-3.182-7.138v-18.5a1.961,1.961,0,0,1,3.92,0V70.8a.778.778,0,1,0,1.556,0v-10.7a1.96,1.96,0,0,1,3.9-.169V70.4a.778.778,0,0,0,1.556,0V60.182a.723.723,0,0,0,.018-.088v-2.71a1.961,1.961,0,0,1,3.92,0V70.4a.778.778,0,0,0,1.556,0V61.084a1.957,1.957,0,0,1,3.886.253V74.4c-3.085.622-5.321,1.943-6.631,3.949a8.652,8.652,0,0,0-1.076,6.393.78.78,0,0,0,.754.585.791.791,0,0,0,.194-.025.778.778,0,0,0,.56-.948,7.1,7.1,0,0,1,.872-5.154c1.153-1.766,3.25-2.909,6.231-3.4.017,0,.03-.014.047-.018a.771.771,0,0,0,.188-.071.709.709,0,0,0,.078-.043.764.764,0,0,0,.156-.147c.013-.016.03-.028.042-.045s.008-.007.011-.012c.236-.354.463-.73.71-1.142a28.151,28.151,0,0,1,1.755-2.652c1.518-2.015,3.643-2.042,4.447-1.609.366.2.308.36.28.437-.473,1.313-2.074,4.964-3.768,8.828-.625,1.423-1.258,2.87-1.85,4.231-2.088,4.8-3.839,6.542-3.853,6.558l0,.006a.779.779,0,0,0-.159.23c0,.007-.011.013-.014.02a.775.775,0,0,0-.062.3v3.583a.778.778,0,0,0,1.556,0V90.991a25.881,25.881,0,0,0,3.963-6.8c.592-1.36,1.225-2.805,1.848-4.225,1.705-3.891,3.317-7.565,3.807-8.927a1.874,1.874,0,0,0-1-2.334" transform="translate(-55.154 -38.047)" fill="#fff"/>
        <path id="Path_1895" data-name="Path 1895" d="M.88,2.871C.706,4.192-.381,12.715.141,16.373a4.711,4.711,0,0,0,1.7,3.339,2.964,2.964,0,0,0,2.132.541,7.789,7.789,0,0,0,.971,2.17,3.436,3.436,0,0,0,3.681,1.5c.1.174.194.35.3.514A3.785,3.785,0,0,0,12.809,26c1.355,3.047,3.5,7.353,5.015,7.876a1.135,1.135,0,0,0,.965-.076c2.264-1.312,1.665-4.357-.232-9.518A20.975,20.975,0,0,1,17.4,14.833a1.435,1.435,0,0,1,.859.142,4.205,4.205,0,0,1,1.547,1.5,9.667,9.667,0,0,0,2.283,2.343,3.549,3.549,0,0,0,3.453.262,1.882,1.882,0,0,0,1.081-1.149,1.931,1.931,0,0,0-.173-1.608L22.118,9.092a8.749,8.749,0,0,0-3.406-3.251l-4.651-3.18L12.756.318a.62.62,0,1,0-1.083.6l1.376,2.47a.634.634,0,0,0,.192.21l4.832,3.3a7.627,7.627,0,0,1,2.983,2.828l4.332,7.238a.687.687,0,0,1,.062.576.636.636,0,0,1-.367.394,2.34,2.34,0,0,1-2.295-.137,8.539,8.539,0,0,1-1.993-2.068A5.077,5.077,0,0,0,18.7,13.818a2.35,2.35,0,0,0-1.868-.089,1.189,1.189,0,0,0-.63.751,21.574,21.574,0,0,0,1.194,10.228c1.895,5.154,2.1,7.252.851,8-.727-.115-2.631-3.4-4.472-7.593,0,0,0-.009,0-.013s-.017-.027-.023-.042c-.317-.723-.632-1.47-.939-2.235l-1.116-5.193a.62.62,0,1,0-1.212.26l1.127,5.244a.678.678,0,0,0,.031.1c.126.315.353.874.651,1.574A2.437,2.437,0,0,1,9.965,23.77a14.113,14.113,0,0,1-1.929-6.817.619.619,0,0,0-.619-.6H7.4a.62.62,0,0,0-.6.64,16.259,16.259,0,0,0,1.25,5.775A2.191,2.191,0,0,1,5.96,21.716C4.671,19.855,4.5,15.9,4.5,15.861a.62.62,0,0,0-.619-.6H3.862a.62.62,0,0,0-.6.642,21,21,0,0,0,.4,3.132,1.794,1.794,0,0,1-1.1-.336A3.566,3.566,0,0,1,1.367,16.2c-.53-3.715.749-13.225.762-13.32a.623.623,0,0,0-.037-.31L1.24.393A.621.621,0,0,0,.663,0,.607.607,0,0,0,.437.043a.619.619,0,0,0-.351.8Z" transform="translate(0 0.001)" fill="#fff"/>
      </g>
    </g>
  </g>
</svg>
